<svg width="20" height="20" viewBox="0 0 20 20" fill="none" xmlns="http://www.w3.org/2000/svg">
<path fill-rule="evenodd" clip-rule="evenodd" d="M10 1.5C5.30558 1.5 1.5 5.30558 1.5 10C1.5 14.6944 5.30558 18.5 10 18.5C14.6944 18.5 18.5 14.6944 18.5 10C18.5 5.30558 14.6944 1.5 10 1.5ZM0.5 10C0.5 4.75329 4.75329 0.5 10 0.5C15.2467 0.5 19.5 4.75329 19.5 10C19.5 15.2467 15.2467 19.5 10 19.5C4.75329 19.5 0.5 15.2467 0.5 10Z" fill="#A7A8AB"/>
<path fill-rule="evenodd" clip-rule="evenodd" d="M5.5 10C5.5 9.72386 5.72386 9.5 6 9.5H14C14.2761 9.5 14.5 9.72386 14.5 10C14.5 10.2761 14.2761 10.5 14 10.5H6C5.72386 10.5 5.5 10.2761 5.5 10Z" fill="#A7A8AB"/>
<path fill-rule="evenodd" clip-rule="evenodd" d="M11.6464 6.64645C11.8417 6.45118 12.1583 6.45118 12.3536 6.64645L15.7071 10L12.3536 13.3536C12.1583 13.5488 11.8417 13.5488 11.6464 13.3536C11.4512 13.1583 11.4512 12.8417 11.6464 12.6464L14.2929 10L11.6464 7.35355C11.4512 7.15829 11.4512 6.84171 11.6464 6.64645Z" fill="#A7A8AB"/>
</svg>
