<svg width="18" height="18" viewBox="0 0 18 18" fill="none" xmlns="http://www.w3.org/2000/svg">
<path fill-rule="evenodd" clip-rule="evenodd" d="M6 1H2C1.44772 1 1 1.44772 1 2V6C1 6.55228 1.44772 7 2 7H6C6.55228 7 7 6.55228 7 6V2C7 1.44772 6.55228 1 6 1ZM2 0C0.895431 0 0 0.895431 0 2V6C0 7.10457 0.895431 8 2 8H6C7.10457 8 8 7.10457 8 6V2C8 0.895431 7.10457 0 6 0H2Z" fill="#3B8DF7"/>
<path fill-rule="evenodd" clip-rule="evenodd" d="M6 11H2C1.44772 11 1 11.4477 1 12V16C1 16.5523 1.44772 17 2 17H6C6.55228 17 7 16.5523 7 16V12C7 11.4477 6.55228 11 6 11ZM2 10C0.895431 10 0 10.8954 0 12V16C0 17.1046 0.895431 18 2 18H6C7.10457 18 8 17.1046 8 16V12C8 10.8954 7.10457 10 6 10H2Z" fill="#3B8DF7"/>
<path fill-rule="evenodd" clip-rule="evenodd" d="M16 1H12C11.4477 1 11 1.44772 11 2V6C11 6.55228 11.4477 7 12 7H16C16.5523 7 17 6.55228 17 6V2C17 1.44772 16.5523 1 16 1ZM12 0C10.8954 0 10 0.895431 10 2V6C10 7.10457 10.8954 8 12 8H16C17.1046 8 18 7.10457 18 6V2C18 0.895431 17.1046 0 16 0H12Z" fill="#3B8DF7"/>
<path fill-rule="evenodd" clip-rule="evenodd" d="M16 11H12C11.4477 11 11 11.4477 11 12V16C11 16.5523 11.4477 17 12 17H16C16.5523 17 17 16.5523 17 16V12C17 11.4477 16.5523 11 16 11ZM12 10C10.8954 10 10 10.8954 10 12V16C10 17.1046 10.8954 18 12 18H16C17.1046 18 18 17.1046 18 16V12C18 10.8954 17.1046 10 16 10H12Z" fill="#3B8DF7"/>
</svg>
