<svg width="17" height="17" viewBox="0 0 17 17" fill="none" xmlns="http://www.w3.org/2000/svg">
<path d="M0 8.5C0 3.80558 3.80558 0 8.5 0C13.1944 0 17 3.80558 17 8.5C17 13.1944 13.1944 17 8.5 17C3.80558 17 0 13.1944 0 8.5Z" fill="white"/>
<path fill-rule="evenodd" clip-rule="evenodd" d="M0.68 8.5C0.68 12.8189 4.18113 16.32 8.5 16.32C12.8189 16.32 16.32 12.8189 16.32 8.5C16.32 4.18113 12.8189 0.68 8.5 0.68C4.18113 0.68 0.68 4.18113 0.68 8.5ZM8.5 0C3.80558 0 0 3.80558 0 8.5C0 13.1944 3.80558 17 8.5 17C13.1944 17 17 13.1944 17 8.5C17 3.80558 13.1944 0 8.5 0Z" fill="#888888" fill-opacity="0.1"/>
<path d="M7.68827 6.99311H9.21827V13.5293H7.68827V6.99311ZM8.45939 5.91599C8.18195 5.91599 7.94939 5.83031 7.76171 5.65895C7.57403 5.47943 7.48019 5.25911 7.48019 4.99799C7.48019 4.73687 7.57403 4.52063 7.76171 4.34927C7.94939 4.16975 8.18195 4.07999 8.45939 4.07999C8.73683 4.07999 8.96939 4.16567 9.15707 4.33703C9.34475 4.50023 9.43859 4.70831 9.43859 4.96127C9.43859 5.23055 9.34475 5.45903 9.15707 5.64671C8.97755 5.82623 8.74499 5.91599 8.45939 5.91599Z" fill="#3B8DF7"/>
</svg>
