<svg width="18" height="18" viewBox="0 0 18 18" fill="none" xmlns="http://www.w3.org/2000/svg">
<path fill-rule="evenodd" clip-rule="evenodd" d="M9.00011 1.44443C4.82729 1.44443 1.44455 4.82717 1.44455 8.99999C1.44455 9.24545 1.24557 9.44443 1.00011 9.44443C0.754649 9.44443 0.555664 9.24545 0.555664 8.99999C0.555664 4.33625 4.33637 0.555542 9.00011 0.555542C11.9283 0.555542 14.5082 2.04635 16.0223 4.30832C16.1588 4.5123 16.1042 4.78834 15.9002 4.92488C15.6962 5.06142 15.4202 5.00675 15.2836 4.80277C13.9275 2.77678 11.6193 1.44443 9.00011 1.44443ZM17.0001 8.55554C17.2456 8.55554 17.4446 8.75453 17.4446 8.99999C17.4446 13.6637 13.6638 17.4444 9.00011 17.4444C6.2795 17.4444 3.8593 16.1574 2.31565 14.1607C2.16551 13.9665 2.20123 13.6874 2.39542 13.5373C2.58961 13.3871 2.86874 13.4228 3.01888 13.617C4.40145 15.4053 6.56635 16.5555 9.00011 16.5555C13.1729 16.5555 16.5557 13.1728 16.5557 8.99999C16.5557 8.75453 16.7546 8.55554 17.0001 8.55554Z" fill="#A7A8AB"/>
<path fill-rule="evenodd" clip-rule="evenodd" d="M1.44455 13H5.44455C5.69001 13 5.889 13.199 5.889 13.4444C5.889 13.6899 5.69001 13.8889 5.44455 13.8889H2.33344V17C2.33344 17.2454 2.13446 17.4444 1.889 17.4444C1.64354 17.4444 1.44455 17.2454 1.44455 17V13Z" fill="#A7A8AB"/>
<path fill-rule="evenodd" clip-rule="evenodd" d="M16.5557 4.99999H12.5557C12.3102 4.99999 12.1112 4.801 12.1112 4.55554C12.1112 4.31008 12.3102 4.1111 12.5557 4.1111H15.6668V0.999986C15.6668 0.754526 15.8658 0.555542 16.1112 0.555542C16.3567 0.555542 16.5557 0.754526 16.5557 0.999986V4.99999Z" fill="#A7A8AB"/>
</svg>
