<svg width="18" height="18" viewBox="0 0 18 18" fill="none" xmlns="http://www.w3.org/2000/svg">
<path fill-rule="evenodd" clip-rule="evenodd" d="M9.9 3.67466V1.8C9.9 1.30294 9.49706 0.9 9 0.9C8.50294 0.9 8.1 1.30294 8.1 1.8L8.1 3.67466C7.79026 3.72663 7.48947 3.80496 7.2 3.90727C7.01935 3.97112 6.8431 4.04431 6.67185 4.12627C6.39062 4.26085 6.12286 4.41906 5.87112 4.59832L4.54523 3.27244C4.19376 2.92096 3.62391 2.92096 3.27244 3.27244C2.92097 3.62391 2.92097 4.19376 3.27244 4.54523L4.59833 5.87112C4.57592 5.90258 4.55384 5.9343 4.5321 5.96626C4.37988 6.19 4.24403 6.42577 4.12627 6.67185C4.04432 6.8431 3.97112 7.01934 3.90727 7.2C3.81135 7.47138 3.73651 7.75271 3.68471 8.04203C3.68126 8.06132 3.67791 8.08064 3.67466 8.1H1.8C1.30294 8.1 0.9 8.50294 0.9 9C0.9 9.49706 1.30294 9.9 1.8 9.9H3.67466C3.72663 10.2097 3.80496 10.5105 3.90727 10.8C3.97112 10.9807 4.04432 11.1569 4.12627 11.3282C4.24403 11.5742 4.37988 11.81 4.5321 12.0337C4.55384 12.0657 4.57592 12.0974 4.59833 12.1289L3.27244 13.4548C2.92097 13.8062 2.92097 14.3761 3.27244 14.7276C3.62392 15.079 4.19376 15.079 4.54524 14.7276L5.87112 13.4017C6.12285 13.5809 6.39063 13.7392 6.67186 13.8737C6.84311 13.9557 7.01935 14.0289 7.2 14.0927C7.48947 14.195 7.79026 14.2734 8.1 14.3253V16.2C8.1 16.6971 8.50294 17.1 9 17.1C9.49706 17.1 9.9 16.6971 9.9 16.2V14.3253C10.2097 14.2734 10.5105 14.195 10.8 14.0927C10.9807 14.0289 11.1569 13.9557 11.3281 13.8737C11.5742 13.756 11.81 13.6201 12.0337 13.4679C12.0657 13.4462 12.0974 13.4241 12.1289 13.4017L13.4548 14.7276C13.8062 15.079 14.3761 15.079 14.7276 14.7276C15.079 14.3761 15.079 13.8062 14.7276 13.4548L13.4017 12.1289C13.5809 11.8772 13.7391 11.6094 13.8737 11.3281C13.9557 11.1569 14.0289 10.9807 14.0927 10.8C14.195 10.5105 14.2734 10.2097 14.3253 9.9H16.2C16.6971 9.9 17.1 9.49706 17.1 9C17.1 8.50294 16.6971 8.1 16.2 8.1H14.3253C14.2734 7.79026 14.195 7.48947 14.0927 7.2C14.0289 7.01935 13.9557 6.84311 13.8737 6.67186C13.7392 6.39063 13.5809 6.12286 13.4017 5.87112L14.7276 4.54523C15.079 4.19376 15.079 3.62391 14.7276 3.27244C14.3761 2.92096 13.8063 2.92096 13.4548 3.27244L12.1289 4.59833C11.8772 4.41907 11.6094 4.26085 11.3282 4.12627C11.1569 4.04432 10.9807 3.97112 10.8 3.90727C10.5105 3.80496 10.2097 3.72663 9.9 3.67466ZM10.8 2.96089V1.8C10.8 0.805887 9.99411 0 9 0C8.00589 0 7.2 0.805887 7.2 1.8V2.96089C6.78102 3.08559 6.3803 3.2527 6.00283 3.45724L5.18163 2.63604C4.47868 1.9331 3.33899 1.9331 2.63604 2.63604C1.9331 3.33898 1.9331 4.47868 2.63604 5.18162L3.45724 6.00282C3.2527 6.3803 3.08559 6.78101 2.96089 7.2H1.8C0.805887 7.2 0 8.00589 0 9C0 9.99411 0.805887 10.8 1.8 10.8H2.96089C3.08559 11.219 3.2527 11.6197 3.45725 11.9972L2.63605 12.8184C1.9331 13.5213 1.9331 14.661 2.63605 15.364C3.33899 16.0669 4.47869 16.0669 5.18163 15.364L6.00283 14.5428C6.3803 14.7473 6.78102 14.9144 7.2 15.0391V16.2C7.2 17.1941 8.00589 18 9 18C9.99411 18 10.8 17.1941 10.8 16.2V15.0391C11.219 14.9144 11.6197 14.7473 11.9972 14.5428L12.8184 15.364C13.5213 16.0669 14.661 16.0669 15.364 15.364C16.0669 14.661 16.0669 13.5213 15.364 12.8184L14.5428 11.9972C14.7473 11.6197 14.9144 11.219 15.0391 10.8H16.2C17.1941 10.8 18 9.99411 18 9C18 8.00589 17.1941 7.2 16.2 7.2H15.0391C14.9144 6.78102 14.7473 6.3803 14.5428 6.00283L15.364 5.18162C16.0669 4.47868 16.0669 3.33898 15.364 2.63604C14.661 1.9331 13.5213 1.9331 12.8184 2.63604L11.9972 3.45724C11.6197 3.2527 11.219 3.08559 10.8 2.96089ZM9 11.7C10.4912 11.7 11.7 10.4912 11.7 9C11.7 7.50883 10.4912 6.3 9 6.3C7.50883 6.3 6.3 7.50883 6.3 9C6.3 10.4912 7.50883 11.7 9 11.7ZM9 12.6C10.9882 12.6 12.6 10.9882 12.6 9C12.6 7.01178 10.9882 5.4 9 5.4C7.01178 5.4 5.4 7.01178 5.4 9C5.4 10.9882 7.01178 12.6 9 12.6Z" fill="#353B4B"/>
</svg>
